# xmcd
#
# Track frame offsets: 
#        150
#        13285
#        23027
#        41912
#        53945
#        71992
#        86615
#        101952
#        107235
#        120185
#        140007
#        150925
#        165200
#        187260
#        205199
#        221869
#
# Disc length: 3168 seconds
#
# Revision: 0
# Processed by: cddbd v1.5.2PL0 Copyright (c) Steve Scherf et al.
# Submitted via: ExactAudioCopyFreeDBPlugin 1.0
#
DISCID=e90c5e10
DTITLE=Howe Gelb - 'Sno Angel Like You
DYEAR=2006
DGENRE=Alt. Rock
TTITLE0=Get To Leave
TTITLE1=Paradise Here Abouts
TTITLE2=But I Did Not
TTITLE3=Hey Man
TTITLE4=The Farm
TTITLE5=That's How Things Get Done
TTITLE6=Love Knows (No Borders)
TTITLE7=The Voice Within
TTITLE8=Nail In The Sky
TTITLE9=Howlin' A Gale
TTITLE10=Robes Of Bible Black
TTITLE11=Worried Spirits
TTITLE12=Neon Filler
TTITLE13=Chore Of Enchantment
TTITLE14=Get To Leave - Holy
TTITLE15=Nail In The Sky - Original
EXTD=
EXTT0=
EXTT1=
EXTT2=
EXTT3=
EXTT4=
EXTT5=
EXTT6=
EXTT7=
EXTT8=
EXTT9=
EXTT10=
EXTT11=
EXTT12=
EXTT13=
EXTT14=
EXTT15=
PLAYORDER=
